<?xml version="1.0" encoding="UTF-8"?>
<svg id="a" data-name="Layer 1" xmlns="http://www.w3.org/2000/svg" width="1312.069" height="1085.733" viewBox="0 0 1312.069 1085.733">
  <path d="m1267.379,101.487H44.69C20.008,101.487,0,121.495,0,146.177v793.379c0,24.681,20.008,44.69,44.69,44.69h1222.69c24.681,0,44.69-20.008,44.69-44.69V146.177c0-24.681-20.008-44.69-44.69-44.69ZM23.517,146.28c0-9.046,7.333-16.379,16.379-16.379h139.999c9.046,0,16.379,7.333,16.379,16.379v18.966c0,9.046-7.333,16.379-16.379,16.379H39.897c-9.046,0-16.379-7.333-16.379-16.379v-18.966Zm174.291,793.172c0,9.046-7.333,16.379-16.379,16.379H41.43c-9.046,0-16.379-7.333-16.379-16.379v-18.966c0-9.046,7.333-16.379,16.379-16.379h139.999c9.046,0,16.379,7.333,16.379,16.379v18.966Zm42.92-793.172c0-9.046,7.333-16.379,16.379-16.379h139.999c9.046,0,16.379,7.333,16.379,16.379v18.966c0,9.046-7.333,16.379-16.379,16.379h-139.999c-9.046,0-16.379-7.333-16.379-16.379v-18.966Zm174.291,793.172c0,9.046-7.333,16.379-16.379,16.379h-139.999c-9.046,0-16.379-7.333-16.379-16.379v-18.966c0-9.046,7.333-16.379,16.379-16.379h139.999c9.046,0,16.379,7.333,16.379,16.379v18.966Zm42.92-793.172c0-9.046,7.333-16.379,16.379-16.379h139.999c9.046,0,16.379,7.333,16.379,16.379v18.966c0,9.046-7.333,16.379-16.379,16.379h-139.999c-9.046,0-16.379-7.333-16.379-16.379v-18.966Zm174.291,793.172c0,9.046-7.333,16.379-16.379,16.379h-139.999c-9.046,0-16.379-7.333-16.379-16.379v-18.966c0-9.046,7.333-16.379,16.379-16.379h139.999c9.046,0,16.379,7.333,16.379,16.379v18.966Zm42.92-793.172c0-9.046,7.333-16.379,16.379-16.379h139.999c9.046,0,16.379,7.333,16.379,16.379v18.966c0,9.046-7.333,16.379-16.379,16.379h-139.999c-9.046,0-16.379-7.333-16.379-16.379v-18.966Zm174.291,793.172c0,9.046-7.333,16.379-16.379,16.379h-139.999c-9.046,0-16.379-7.333-16.379-16.379v-18.966c0-9.046,7.333-16.379,16.379-16.379h139.999c9.046,0,16.379,7.333,16.379,16.379v18.966Zm42.92-793.172c0-9.046,7.333-16.379,16.379-16.379h139.999c9.046,0,16.379,7.333,16.379,16.379v18.966c0,9.046-7.333,16.379-16.379,16.379h-139.999c-9.046,0-16.379-7.333-16.379-16.379v-18.966Zm174.291,793.172c0,9.046-7.333,16.379-16.379,16.379h-139.999c-9.046,0-16.379-7.333-16.379-16.379v-18.966c0-9.046,7.333-16.379,16.379-16.379h139.999c9.046,0,16.379,7.333,16.379,16.379v18.966Zm42.92-793.172c0-9.046,7.333-16.379,16.379-16.379h139.999c9.046,0,16.379,7.333,16.379,16.379v18.966c0,9.046-7.333,16.379-16.379,16.379h-139.999c-9.046,0-16.379-7.333-16.379-16.379v-18.966Zm174.291,793.172c0,9.046-7.333,16.379-16.379,16.379h-139.999c-9.046,0-16.379-7.333-16.379-16.379v-18.966c0-9.046,7.333-16.379,16.379-16.379h139.999c9.046,0,16.379,7.333,16.379,16.379v18.966Z" fill="#18181b"/>
</svg>