<?xml version="1.0" encoding="UTF-8"?>
<svg id="a" data-name="Layer 1" xmlns="http://www.w3.org/2000/svg" width="1085.733" height="1085.733" xmlns:xlink="http://www.w3.org/1999/xlink" viewBox="0 0 1085.733 1085.733">
  <defs>
    <radialGradient id="b" cx="542.866" cy="542.866" fx="542.866" fy="542.866" r="542.866" gradientUnits="userSpaceOnUse">
      <stop offset=".441" stop-color="#fff"/>
      <stop offset="1" stop-color="#020617"/>
    </radialGradient>
    <radialGradient id="c" cx="542.866" cy="542.866" fx="542.866" fy="542.866" r="427.586" gradientUnits="userSpaceOnUse">
      <stop offset=".441" stop-color="#fff"/>
      <stop offset="1" stop-color="#020617"/>
    </radialGradient>
    <radialGradient id="d" cx="542.866" cy="542.866" fx="542.866" fy="542.866" r="325.431" gradientUnits="userSpaceOnUse">
      <stop offset=".128" stop-color="gray"/>
      <stop offset="1" stop-color="#020617"/>
    </radialGradient>
  </defs>
  <circle cx="542.866" cy="542.866" r="542.866" fill="url(#b)"/>
  <circle cx="542.866" cy="542.866" r="427.586" fill="url(#c)"/>
  <circle cx="542.866" cy="542.866" r="325.431" fill="url(#d)"/>
  <path d="m871.752,581.028c-.365-.037-.726-.045-1.081-.024-1.895.108-3.815.064-5.702-.13-48.899-4.71-98.056-6.828-147.18-6.081-49.122.716-98.208,4.148-146.94,10.374l-9.141,1.141-9.12,1.298c-6.076.892-12.161,1.721-18.229,2.664l-18.182,2.971c-3.034.475-6.057,1.014-9.075,1.576l-9.062,1.652c-24.15,4.476-48.211,9.477-72.068,15.333-47.734,11.607-94.849,25.781-141.013,42.583-1.66.611-3.427,1.1-5.168,1.427-.366.069-.73.168-1.09.3-3.685,1.355-5.528,5.496-4.116,9.248,1.412,3.752,5.506,5.709,9.144,4.371.341-.125.664-.276.971-.449,1.636-.923,3.364-1.719,5.126-2.367,3.699-1.387,7.439-2.661,11.16-3.986,3.73-1.3,7.44-2.659,11.187-3.912,44.113-15.201,89.088-27.842,134.548-38.315,22.755-5.139,45.64-9.676,68.616-13.707,11.514-1.859,23.007-3.855,34.565-5.424l8.658-1.249,4.33-.619,4.34-.542,17.36-2.167c46.335-5.422,92.958-8.412,139.609-8.847,46.651-.445,93.323,1.635,139.759,6.132,1.742.179,3.527.514,5.216.982.355.098.722.169,1.099.208,3.856.395,7.334-2.515,7.768-6.5.434-3.985-2.381-7.541-6.287-7.941Z" fill="#fff"/>
  <g>
    <path d="m332.719,468.022c-1.993,14.132-3.987,28.264-5.981,42.395-1.349,9.082-2.024,13.623-3.374,22.703-2.114,14.889-3.954,29.823-5.674,44.763-.307,2.434-.614,4.497-.614,6.912,0,5.944,1.687,9.744,7.208,9.374.92-.062,1.226.475,1.073,1.6-.307,1.804-.46,2.706-.766,4.51-.153,1.31-.92,1.919-1.84,2.166-5.521-.191-11.501-.191-17.175.135-5.52.317-11.807,1.021-17.482,1.849-.46.022-1.073-.32-.92-1.442.307-1.872.46-2.808.766-4.68.153-1.493.767-2.08,1.994-2.139,6.9-.336,9.359-7.17,10.887-16.724,2.373-14.829,4.52-29.702,6.594-44.581,3.048-21.875,6.075-43.774,8.587-65.718.154-1.31.777-2.265,1.841-2.16,2.424.239,6.441.329,12.267-.263-10.121-5.794-14.261-9.08-17.788-11.651-11.869-8.404-24.089-17.417-39.103-16.982-25.05.725-42.42,27.146-42.324,50.666.05,12.256,5.718,28.511,19.782,28.622,9.349.074,15.028-9.173,15.028-16.974,0-2.043-.46-4.257-1.533-5.892,1.84-2.105,4.14-3.3,6.134-3.374,3.987-.148,7.386,3.551,7.514,10.106.274,14.006-15.98,21.832-27.602,22.275-20.757.792-34.975-18.432-34.656-38.207.525-32.571,32.419-53.79,62.565-55.222,19.267-.915,37.534,9.077,53.058,19.468,13.968,9.349,26.483,15.938,42.477,15.552,10.633-.256,21.943-8.111,21.928-20.422-.009-7.235-3.68-11.532-7.821-11.143-.123.012-.184.017-.307.029,1.227-5.688,5.214-10.52,10.428-11.027,3.987-.388,11.434,1.564,11.347,12.064-.189,22.826-25.845,37.293-46.004,39.204-9.672.917-21.735-1.559-30.516-5.791Z" fill="#fff"/>
    <path d="m397.894,594.732c.163-1.489.613-3.218.766-4.719.154-1.501.767-2.118,1.994-2.238,6.9-.678,9.2-7.603,10.887-17.247,1.104-6.948,1.656-10.422,2.76-17.37.613-3.963-.46-5.895-3.987-5.538-11.699,1.185-23.404,2.306-35.117,3.353-3.067.274-4.561,2.131-5.06,5.648-.555,3.911-1.774,12.874-2.3,17.288-.265,2.223-.46,5.055-.46,7.098,0,5.944,1.533,9.718,7.054,9.226.92-.082,1.205.464,1.073,1.576-.175,1.472-.604,3.039-.766,4.526-.143,1.305-.92,1.939-1.84,2.207-5.521-.069-11.501.069-17.175.531-5.52.45-11.807,1.311-17.481,2.286-.46.034-1.053-.309-.92-1.418.175-1.47.613-3.203.766-4.7.154-1.497.767-2.1,1.994-2.191,6.594-.492,9.282-8.191,10.887-16.998,3.882-21.301,6.793-43.174,9.354-64.845v.186c.307-2.255.46-4.682.46-6.726,0-6.129-1.533-10.082-7.054-9.637-.46.037-1.216-.096-1.074-1.4.163-1.486.604-3.219.767-4.706.143-1.304.92-1.931,1.84-2.191,5.214.319,11.194-.001,16.868-.501,5.674-.5,11.808-1.246,17.788-2.555.614-.058,1.053.471.92,1.584-.175,1.473-.614,3.03-.767,4.531-.153,1.5-.766,2.116-1.993,2.231-6.747.634-9.198,8.285-10.888,17.162-1.223,6.424-2.724,16.641-3.987,25.06-.591,3.939.46,5.906,3.987,5.588,11.763-1.06,23.52-2.195,35.27-3.392,3.067-.312,4.6-2.143,5.06-5.72,1.227-8.485,2.607-18.473,3.374-25.054.307-2.075.46-4.877.46-6.735,0-6.129-1.534-10.052-7.054-9.487-.46.047-1.217-.069-1.074-1.376.163-1.49.604-3.233.767-4.722.143-1.307.92-1.951,1.84-2.231,5.214.207,11.194-.236,16.868-.845,5.674-.609,11.807-1.466,17.788-2.875.614-.068,1.053.453.92,1.569-.175,1.476-.614,3.04-.767,4.543-.153,1.503-.767,2.129-1.993,2.265-6.747.749-9.28,8.497-10.888,17.355-3.881,21.388-6.784,43.339-9.354,65.088v-.186c-.307,2.447-.46,4.879-.46,7.107,0,5.944,1.534,9.685,7.054,9.089.92-.099,1.205.441,1.073,1.556-.175,1.475-.604,3.05-.766,4.541-.143,1.308-.92,1.957-1.84,2.242-5.521.036-11.501.296-17.175.88-5.674.584-11.654,1.557-17.481,2.683-.46.045-1.063-.09-.92-1.396Z" fill="#fff"/>
    <path d="m446.048,589.709c.368-2.047.552-3.07.92-5.117.307-1.335.766-1.757,1.993-1.893,6.594-.732,9.295-9.268,10.887-17.938,3.852-20.979,6.535-42.624,9.048-64,.307-2.264.46-4.696.46-6.739,0-6.13-1.534-10.038-7.054-9.41-.46.052-1.227-.046-1.074-1.364.307-2.041.46-3.061.767-5.102.153-1.317,1.073-1.979,1.993-2.27,9.718-.538,19.512-1.505,29.136-2.646,9.738-1.154,19.944-2.283,29.289-4.245,1.497-.314,2.453.261,2.913,1.691,2.556,9.35,5.112,18.7,7.667,28.05.153,1.467-.92,2.34-2.453,2.525-1.533.185-3.067,0-3.987-1.933-4.699-10.372-13.562-20.406-26.069-19.161-1.533.182-2.3.274-3.833.456-6.747.8-9.263,8.56-10.888,17.445-1.102,6.028-2.853,17.324-3.527,22.145-.548,3.924.46,5.891,3.987,5.477,3.619-.425,5.428-.638,9.047-1.067,3.527-.418,7.054-4.368,7.821-8.174.245-1.218.368-1.827.613-3.045.307-1.337.92-2.338,1.993-2.467,2.27-.271,3.404-.407,5.674-.679.46-.055,1.074.243,1.074,1.171-2.391,10.467-3.291,22.63-4.6,32.314-.167,1.236-1.074,1.986-1.993,2.096-2.27.271-3.404.407-5.674.677-.92.109-1.227-.225-1.074-1.358.184-1.359.276-2.039.46-3.398.613-4.531-1.533-8.546-6.441-7.966-3.435.406-5.153.609-8.588,1.011-3.067.359-4.533,2.298-5.06,5.792-.393,2.605-2.271,16.835-2.76,21.496-1,9.539.153,16.896,12.881,15.396,1.901-.224,2.852-.336,4.753-.561,13.922-3.281,24.12-18.157,29.442-30.642.767-1.765,2.147-3.416,4.754-3.731,1.841-.222,1.994.873,1.687,1.653-3.936,12.115-7.871,24.23-11.808,36.344-.613,1.56-1.712,2.464-3.067,2.598-11.521,1.145-23.568,1.952-35.269,3.255-10.991,1.225-22,2.977-32.969,4.682-.46.051-1.38-.033-1.074-1.367Z" fill="#fff"/>
    <path d="m563.053,575.89c.368-2.05.552-3.076.92-5.126.307-1.338.767-1.764,1.993-1.912,6.594-.794,9.303-9.349,10.888-18.025,3.833-20.987,6.519-42.652,9.047-64.048.308-2.265.46-4.698.46-6.741,0-6.13-1.533-10.035-7.054-9.375-.46.055-1.226-.039-1.074-1.358.307-2.043.46-3.064.767-5.107.153-1.318,1.074-1.986,1.993-2.281,9.721-.595,19.499-1.571,29.136-2.69,9.741-1.132,19.932-2.196,29.289-4.064,1.497-.299,2.454.286,2.914,1.721,2.556,9.38,5.112,18.761,7.667,28.141.154,1.469-.92,2.328-2.454,2.495-1.533.167-3.067-.037-3.987-1.98-4.688-10.403-13.523-20.54-26.069-19.362-1.534.176-2.3.264-3.834.441-6.747.779-9.262,8.54-10.887,17.426-1.102,6.028-2.854,17.324-3.527,22.146-.548,3.924.46,5.889,3.987,5.477,3.619-.423,5.429-.634,9.048-1.052,3.526-.408,7.054-4.341,7.82-8.144.246-1.217.369-1.825.614-3.042.307-1.335.92-2.334,1.993-2.456,2.269-.258,3.404-.387,5.674-.643.46-.052,1.074.25,1.074,1.179-2.392,10.456-3.291,22.612-4.601,32.283-.167,1.234-1.073,1.979-1.993,2.084-2.269.258-3.404.388-5.674.649-.92.106-1.226-.23-1.074-1.363.184-1.359.276-2.038.46-3.396.613-4.528-1.534-8.555-6.441-7.986-3.435.398-5.153.599-8.588,1.001-3.067.359-4.534,2.3-5.06,5.795-.393,2.606-2.271,16.838-2.76,21.5-1.001,9.542.154,16.874,12.881,15.392,1.902-.221,2.852-.332,4.754-.552,13.893-3.228,24.113-18.005,29.443-30.45.767-1.757,2.147-3.394,4.754-3.679,1.841-.201,1.993.897,1.687,1.674-3.937,12.073-7.873,24.146-11.807,36.22-.613,1.554-1.712,2.447-3.067,2.572-11.541,1.061-23.572,1.826-35.27,3.131-10.995,1.227-22.004,3.067-32.969,4.863-.46.055-1.38-.02-1.074-1.357Z" fill="#fff"/>
    <path d="m716.861,559.996c-1.227.107-1.84.16-3.067.268-1.38.122-2.146-.182-2.76-1.613-8.27-31.195-17.527-62.565-28.982-92.741-4.579,24.549-7.726,49.449-10.581,74.25-.153,2.059-.459,6.734-.459,6.177,0,6.315,2.146,10.356,10.734,9.504.92-.091,1.206.452,1.074,1.566-.175,1.474-.604,3.045-.767,4.534-.143,1.306-.92,1.948-1.841,2.226-5.52-.007-11.501.234-17.174.828-5.521.578-11.808,1.622-17.481,2.799-.46.05-1.052-.271-.92-1.385.175-1.474.613-3.225.766-4.728.154-1.503.767-2.127,1.993-2.26,8.588-.933,12.881-8.067,14.568-17.717,3.766-21.549,6.683-43.308,9.201-65.037.154-1.873.307-3.746.307-5.604,0-6.686-1.993-10.95-10.581-10.046-.459.048-1.216-.065-1.073-1.373.163-1.49.603-3.235.766-4.725.143-1.307.921-1.954,1.841-2.236,2.76.082,9.814-.096,17.175-.831,4.908-.49,10.559-1.627,14.568-2.35,1.668-.301,2.76.295,3.221,1.738,7.982,25.72,15.956,51.443,23.922,77.168,2.886-19.005,5.676-38.046,7.974-57.132v.186c.307-2.068.46-4.124.46-5.982,0-6.687-2.3-10.785-10.734-10.059-.46.04-1.216-.089-1.074-1.393.163-1.487.604-3.222.767-4.71.143-1.305.92-1.936,1.84-2.2,5.214.297,11.194-.008,16.868-.453,5.675-.444,11.807-1.088,17.789-2.25.613-.043,1.052.498.92,1.607-.175,1.468-.613,3.015-.767,4.512-.153,1.497-.766,2.097-1.993,2.184-8.741.62-13.034,7.652-14.568,17.243-5.548,28.779-8.979,58.035-12.114,87.159-.46,1.896-1.84,1.998-9.814,2.876Z" fill="#fff"/>
    <path d="m764.861,556.137c-5.214.341-11.655,1.158-17.789,2.169-.459.034-1.052-.308-.92-1.418.176-1.47.613-3.203.767-4.701.153-1.497.766-2.1,1.993-2.19,6.593-.482,9.327-7.946,10.888-16.927,3.715-21.373,6.774-43.078,9.354-64.696v.186c.307-2.249.46-4.673.46-6.716,0-6.129-1.534-10.126-7.054-9.759-.46.031-1.216-.113-1.074-1.414.163-1.484.603-3.211.766-4.695.143-1.301.921-1.919,1.841-2.164,4.447.264,9.201.153,13.955-.125,3.68-.215,8.448-.681,12.267-1.049,4.581-.441,9.386-.873,14.261-1.053,25.495-.941,40.004,23.819,39.717,47.05-.387,31.351-21.408,68.577-56.892,67.276-7.39-.271-14.721-.284-22.542.228Zm11.808-24.884c-.307,2.247-.46,4.3-.46,6.343,0,6.315,1.993,10.262,11.042,9.962.368-.02.552-.029.92-.049,27.56-.641,38.712-37.109,38.644-59.567-.043-13.979-6.584-39.453-25.456-38.043-9.067.678-13.644,7.367-15.335,16.926-3.785,21.401-6.819,43.021-9.354,64.614v-.186Z" fill="#fff"/>
    <path d="m860.857,524.459c6.287-.043,10.377,6.691,9.047,14.828-1.419,8.678-7.667,15.424-14.414,15.495-6.288.067-9.997-6.452-8.894-14.552,1.174-8.618,7.514-15.726,14.261-15.772Z" fill="#fff"/>
  </g>
</svg>