<?xml version="1.0" encoding="UTF-8"?>
<svg id="a" data-name="Layer 1" xmlns="http://www.w3.org/2000/svg" width="1085.733" height="1085.733" xmlns:xlink="http://www.w3.org/1999/xlink" viewBox="0 0 1085.733 1085.733">
  <defs>
    <radialGradient id="b" cx="542.866" cy="542.866" fx="542.866" fy="542.866" r="542.866" gradientUnits="userSpaceOnUse">
      <stop offset=".441" stop-color="#fff"/>
      <stop offset="1" stop-color="#000"/>
    </radialGradient>
    <radialGradient id="c" cx="542.866" cy="542.866" fx="542.866" fy="542.866" r="427.586" xlink:href="#b"/>
    <radialGradient id="d" cx="542.866" cy="542.866" fx="542.866" fy="542.866" r="325.431" gradientUnits="userSpaceOnUse">
      <stop offset=".128" stop-color="gray"/>
      <stop offset="1" stop-color="#000"/>
    </radialGradient>
  </defs>
  <circle cx="542.866" cy="542.866" r="542.866" fill="url(#b)"/>
  <circle cx="542.866" cy="542.866" r="427.586" fill="url(#c)"/>
  <circle cx="542.866" cy="542.866" r="325.431" fill="url(#d)"/>
  <g>
    <path d="m323.521,509.16c-1.779,10.423-3.557,20.846-5.337,31.268-1.204,6.699-1.806,10.048-3.01,16.744-1.862,10.974-3.53,21.983-5.063,33.008-.274,1.796-.548,3.317-.548,5.095,0,4.379,1.505,7.171,6.432,6.867.821-.051,1.094.343.958,1.172-.274,1.331-.41,1.996-.684,3.326-.137.966-.821,1.42-1.642,1.607-4.927-.111-10.263-.08-15.326.186-4.926.259-10.537.804-15.6,1.435-.41.018-.958-.233-.821-1.06.274-1.38.41-2.07.684-3.451.137-1.1.684-1.535,1.779-1.583,6.158-.274,8.346-5.32,9.715-12.365,2.124-10.927,4.029-21.903,5.884-32.873,2.724-16.105,5.436-32.265,7.663-48.457.137-.966.692-1.673,1.643-1.601,2.169.163,5.747.209,10.947-.262-9.031-4.209-12.726-6.61-15.873-8.487-10.486-6.658-22.29-12.707-34.894-12.356-19.526.544-37.433,17.377-37.768,37.405-.173,10.336,6.324,21.245,17.653,21.061,8.57-.14,13.41-6.79,13.41-12.537,0-1.505-.411-3.134-1.368-4.337,1.642-1.555,3.694-2.441,5.474-2.501,3.558-.12,6.908,2.712,6.705,7.423-.489,11.352-14.601,16.271-24.631,16.478-15.489.319-31.575-11.477-30.926-28.117,1.043-26.743,33.185-41.009,55.831-40.782,17.039.171,32.219,5.282,47.347,14.099,11.557,6.736,24.227,12.254,37.905,11.155,15.569-1.251,19.568-9.355,19.568-15.239,0-5.337-3.284-8.461-6.979-8.137-.109.01-.164.014-.274.024,1.095-4.201,4.652-7.797,9.305-8.221,3.558-.324,10.323,1.18,10.126,8.775-.469,18.089-25.542,28.31-41.052,29.294-9.175.582-18.473-.936-27.231-4.056Z" fill="#fff"/>
    <path d="m381.682,601.998c.145-1.096.547-2.376.684-3.483.137-1.107.684-1.567,1.779-1.668,6.158-.566,8.21-5.693,9.715-12.816.985-5.13,1.478-7.695,2.463-12.826.547-2.927-.41-4.338-3.558-4.039-10.438,1-20.886,1.935-31.337,2.797-2.737.227-4.072,1.616-4.516,4.203-.495,2.881-1.585,9.513-2.052,12.755-.236,1.635-.411,3.727-.411,5.233,0,4.379,1.368,7.148,6.295,6.74.821-.068,1.075.334.958,1.152-.156,1.081-.539,2.246-.684,3.34-.127.962-.821,1.437-1.642,1.642-4.927-.006-10.263.142-15.326.524-4.926.372-10.537,1.049-15.599,1.804-.411.028-.939-.224-.821-1.04.156-1.078.547-2.363.684-3.467.137-1.104.684-1.551,1.779-1.627,5.884-.405,8.282-6.1,9.715-12.597,3.451-15.638,6.064-31.845,8.347-47.84v.137c.274-1.663.41-3.453.41-4.958,0-4.516-1.368-7.415-6.295-7.048-.41.031-1.085-.063-.958-1.023.145-1.094.539-2.378.684-3.472.127-.961.821-1.429,1.642-1.628,4.652.198,9.989-.084,15.052-.499,5.063-.415,10.537-1.017,15.874-2.037.548-.048.939.34.821,1.159-.156,1.082-.548,2.238-.684,3.345-.137,1.107-.684,1.566-1.779,1.662-6.021.528-8.208,6.185-9.716,12.739-1.091,4.742-2.432,12.291-3.558,18.496-.527,2.904.41,4.347,3.558,4.083,10.496-.874,20.99-1.82,31.474-2.831,2.737-.262,4.105-1.628,4.516-4.267,1.095-6.265,2.326-13.637,3.01-18.494.274-1.532.41-3.598.41-4.966,0-4.516-1.368-7.388-6.294-6.914-.41.04-1.086-.039-.958-1.003.145-1.097.539-2.39.684-3.487.127-.964.821-1.447,1.642-1.664,4.652.098,9.989-.294,15.052-.808,5.063-.514,10.537-1.219,15.874-2.332.548-.058.939.323.821,1.145-.156,1.084-.548,2.248-.684,3.357-.137,1.109-.684,1.578-1.779,1.693-6.021.635-8.282,6.377-9.716,12.918-3.445,15.714-6.06,31.991-8.347,48.058v-.136c-.274,1.806-.411,3.598-.411,5.241,0,4.379,1.368,7.119,6.295,6.616.821-.084,1.075.313.958,1.134-.156,1.083-.539,2.256-.684,3.354-.127.965-.821,1.453-1.642,1.674-4.927.09-10.263.348-15.326.838-5.063.49-10.4,1.267-15.599,2.153-.411.038-.949-.057-.821-1.02Z" fill="#fff"/>
    <path d="m424.653,597.772c.328-1.512.493-2.268.821-3.781.274-.987.684-1.303,1.779-1.419,5.884-.622,8.316-6.965,9.715-13.355,3.37-15.393,5.806-31.46,8.074-47.27.274-1.672.41-3.467.41-4.972,0-4.516-1.368-7.373-6.294-6.838-.41.045-1.095-.018-.958-.991.274-1.508.411-2.261.684-3.769.137-.973.958-1.472,1.779-1.699,8.895-.559,17.379-1.373,26-2.359,8.484-.97,17.383-1.92,26.136-3.589,1.34-.256,2.189.152,2.6,1.198,2.737,8.215,4.105,12.321,6.842,20.534.137,1.078-.821,1.74-2.189,1.903-1.368.163-2.737.052-3.558-1.357-3.867-8-14.087-15.124-23.263-13.697-1.368.158-2.053.237-3.421.394-6.021.692-8.267,6.447-9.716,13.013-.982,4.449-2.548,12.818-3.147,16.366-.488,2.893.41,4.334,3.558,3.977,3.229-.366,4.844-.55,8.073-.92,3.147-.361,6.294-3.325,6.979-6.141.219-.901.328-1.352.547-2.253.274-.99.821-1.738,1.779-1.849,2.025-.235,3.038-.353,5.063-.59.41-.048.958.162.958.846-1.916,7.066-3.198,18.1-4.105,23.88-.141.898-.958,1.479-1.779,1.575-2.025.235-3.038.353-5.063.586-.821.095-1.095-.147-.958-.984.164-1.004.247-1.506.411-2.51.547-3.348-1.368-6.273-5.747-5.772-3.065.351-4.598.525-7.663.871-2.737.309-4.049,1.774-4.516,4.34-.35,1.92-2.027,12.44-2.463,15.875-.892,7.035.137,12.449,11.495,11.157,1.697-.193,2.545-.29,4.242-.484,11.953-2.406,20.739-12.814,26.273-23.041.684-1.312,1.916-2.553,4.242-2.83,1.642-.195,1.779.61,1.505,1.19-3.511,8.991-7.024,17.982-10.537,26.973-.547,1.159-1.528,1.847-2.737,1.964-10.267.994-21.019,1.759-31.473,2.934-9.815,1.102-19.642,2.432-29.42,3.886-.411.043-1.232-.008-.958-.995Z" fill="#fff"/>
    <path d="m638.673,474.587c-3.181,16.954-6.037,33.989-8.621,51.044,5.474-.615,8.21-.918,13.683-1.516,3.832-.419,6.295-3.01,6.979-5.684.328-1.404.492-2.106.821-3.509.275-1.124.822-1.73,1.78-1.833,2.189-.234,3.284-.351,5.473-.582.684-.072,1.095.158.958.857-1.915,7.317-4.196,19.598-4.789,26.234-.083.929-.821,1.455-1.779,1.558-2.189.234-3.284.352-5.474.589-.684.074-.958-.579-.958-.99.329-1.513.493-2.27.822-3.784.684-4.18-.274-6.816-5.474-6.246-5.2.57-7.8.86-13,1.444-.109,1.107-.164,1.66-.274,2.767-2.376,12.898-5.295,23.248-10.537,35.27,9.279,4.284,18.357,9.752,26.821,15.473,15.708,9.624,34.667,22.125,52.683,21.325,12.547-.557,20.116-9.465,20.116-15.624,0-5.2-3.01-8.502-7.253-7.851,1.094-4.202,4.652-7.802,9.168-8.185,3.695-.314,10.529,1.347,10.263,8.866-.621,17.55-26.09,29.008-41.599,29.288-24.101.436-46.585-13.565-65.82-27.234-3.284-2.364-7.526-5.161-10.674-7.261-9.858,10.531-22.047,14.459-35.578,16.92-8.273,1.505-24.45-1.403-24.221-11.451.272-11.974,19.133-20.326,30.515-21.459,7.665-.763,15.737.185,23.811,2.393,3.469-9.198,5.796-19.318,7.526-28.925,3.526-19.581,6.429-39.528,9.168-59.343.137-.974.869-1.653,1.642-1.692,2.051-.104,6.842-.364,12.863-1.167-9.99-4.095-14.094-6.084-17.242-8.051-12.73-6.212-21.969-10.369-34.894-9.883-18.345.689-37.278,20.858-37.768,41.078-.245,10.101,6.408,20.585,17.652,19.215,8.609-1.049,13.411-8.041,13.411-13.789,0-1.506-.411-3.098-1.368-4.215,1.642-1.702,3.694-2.768,5.473-2.98,3.559-.424,6.923,2.174,6.705,6.866-.529,11.393-14.615,17.214-24.631,18.683-15.652,2.296-30.92-8.975-30.926-24.724-.011-26.598,32.4-44.799,55.831-46.402,16.822-1.151,32.02,2.877,47.348,11.111,11.701,6.286,24.365,11.283,37.904,9.937,15.58-1.55,19.568-9.575,19.568-15.459,0-5.337-3.284-8.448-6.979-8.091-.109.011-.164.016-.274.027,1.095-4.212,4.653-7.841,9.305-8.277,3.559-.333,10.324,1.191,10.127,8.786-.469,18.078-25.614,28.339-41.052,29.713-9.724.865-19.021-.452-27.231-3.24Zm-36.263,98.963c-7.663-3.893-14.641-6.076-20.8-5.341-10.81,1.29-17.105,7.389-17.105,12.726,0,4.79,4.487,8.509,14.231,7.732,8.877-.708,19.121-7.445,23.674-15.117Z" fill="#fff"/>
    <path d="m729.95,564.518c-1.095.088-1.642.133-2.737.222-1.232.101-1.915-.116-2.463-1.165-7.528-22.999-15.815-46.039-25.862-68.059-3.983,18.074-6.902,36.479-9.442,54.809-.136,1.518-.41,4.966-.41,4.556,0,4.652,1.915,7.605,9.579,6.892.821-.076,1.076.323.958,1.142-.156,1.083-.539,2.252-.684,3.347-.128.963-.821,1.445-1.642,1.659-4.926.05-10.263.29-15.326.79-4.927.486-10.537,1.328-15.599,2.262-.411.043-.939-.19-.821-1.01.156-1.083.547-2.383.683-3.492.137-1.108.684-1.576,1.779-1.689,7.663-.789,11.493-6.093,13-13.219,3.352-15.849,5.966-31.967,8.211-48.013.137-1.382.274-2.763.274-4.131,0-4.927-1.779-8.048-9.442-7.287-.41.041-1.085-.035-.957-.999.145-1.097.539-2.392.684-3.489.127-.964.822-1.45,1.642-1.668,2.463.03,8.758-.177,15.326-.793,4.379-.411,9.386-1.295,13-1.872,1.515-.242,2.463.193,2.874,1.252,7.126,18.879,14.24,37.763,21.347,56.65,2.555-14.011,5.08-28.053,7.115-42.15v.137c.274-1.526.411-3.041.411-4.41,0-4.926-2.052-7.93-9.579-7.329-.411.033-1.085-.057-.958-1.018.145-1.094.539-2.38.684-3.476.127-.962.821-1.434,1.642-1.636,4.653.179,9.989-.091,15.052-.457,5.064-.366,10.536-.88,15.874-1.772.547-.035.939.364.821,1.179-.156,1.078-.547,2.225-.684,3.328-.136,1.104-.683,1.549-1.779,1.621-7.8.51-11.631,5.72-13,12.797-4.831,21.165-8.014,42.781-10.81,64.297-.411,1.4-1.642,1.484-8.758,2.195Z" fill="#fff"/>
    <path d="m772.783,561.352c-4.653.279-10.4.919-15.874,1.703-.41.028-.939-.223-.821-1.039.156-1.079.547-2.363.684-3.468.136-1.103.684-1.552,1.779-1.626,5.884-.396,8.334-5.902,9.716-12.536,3.282-15.754,6.031-31.749,8.347-47.713v.137c.274-1.658.411-3.445.411-4.95,0-4.516-1.369-7.453-6.295-7.152-.411.025-1.085-.077-.958-1.036.145-1.092.538-2.371.683-3.463.127-.959.822-1.419,1.643-1.606,3.968.171,8.211.065,12.453-.163,3.284-.176,7.536-.54,10.947-.827,4.091-.344,8.382-.624,12.726-.829,20.242-.959,35.68,14.765,35.442,34.57-.338,28.101-22.69,49.85-50.768,49.721-6.654-.031-13.136-.142-20.115.277Zm10.537-18.392c-.274,1.656-.411,3.17-.411,4.675,0,4.652,1.779,7.548,9.853,7.289.328-.016.492-.024.821-.04,22.295-.084,33.957-25.032,34.484-44.008.375-13.511-8.082-28.289-22.716-27.953-8.198.188-12.175,5.482-13.684,12.53-3.367,15.722-6.093,31.714-8.347,47.644v-.136Z" fill="#fff"/>
    <path d="m858.447,537.734c5.61-.034,9.26,4.93,8.073,10.922-1.264,6.383-6.842,11.364-12.863,11.421-5.611.054-8.92-4.754-7.937-10.712,1.043-6.328,6.705-11.594,12.726-11.631Z" fill="#fff"/>
  </g>
</svg>