<?xml version="1.0" encoding="utf-8"?>
<!-- Generator: Adobe Illustrator 27.3.1, SVG Export Plug-In . SVG Version: 6.00 Build 0)  -->
<svg version="1.1" id="Layer_1" xmlns="http://www.w3.org/2000/svg" xmlns:xlink="http://www.w3.org/1999/xlink" x="0px" y="0px"
	 viewBox="0 0 246.4 160" style="enable-background:new 0 0 246.4 160;" xml:space="preserve">
<style type="text/css">
	.st0{fill:#20b15c;}
	.st1{display:none;}
	.st2{display:inline;fill:#FFFFFF;}
	.st3{display:none;fill:#FFFFFF;}
	.st4{fill:#FFFFFF;}
</style>
<g id="SvgjsG2685" transform="matrix(0.9820592540669653,0,0,0.9820592540669653,-0.054560523427421584,0)">
	<g id="g17">
		<path id="path3" class="st0" d="M76.9,20.9h0.8L77,20.5L76.9,20.9z M78.9,19.9c0,0.1,0,0.1,0.1,0.1l0.7-0.4
			C79.3,19.4,79.2,19.4,78.9,19.9z M72.9,24.1l0.4-0.3c0.1-0.1,0.1-0.3,0.1-0.3h-0.3L72.9,24.1C72.8,23.9,72.8,24.1,72.9,24.1z
			 M76.3,19.6L76.3,19.6L75.9,20h0.4V19.6z M73,23.3l0.9-0.8c0.1-0.1,0.1-0.3,0.1-0.4h-0.3l-1.9,1.7l-0.3,0.7l1.1-0.9L73,23.3z"/>
		<path id="path5" class="st0" d="M61.4,35.8v-0.3c0.1-0.7,0.6-1.3,1.1-1.7l1.4-0.9l0.8-0.9l1.1-1.1l0.7-0.7l0.7-0.4
			c0.6-0.3,1-0.8,1.2-1.4l0.7-0.8c0.6-0.6,1.1-1.2,1.5-2l0.3-0.4l0.4-0.3L71,24.4l0.7-0.8c1.2-0.9,2.1-2.1,3.4-3.1l0.4-0.4
			c0.1-0.3,0.4-0.7,0.8-0.9l1.2-0.7h0.7c0.4-0.2,0.9-0.6,1.1-0.9v-0.3c0.4-0.9,1.1-1.7,2-2.1l1.2-0.8l0.3-0.3l0.7-0.7l1.5-0.8h0.3
			l-1.7,0.7l-2.1,1.5c-0.9,0.8-2.1,0.9-2.8,2.1h0.4c-1.1,0.3-2.1,0.8-2.7,1.9c-0.4,1.1-1.2,0.9-1.9,1.4c-0.3,0.1-0.4,0.3-0.4,0.7
			c-1.2-0.1-1.7,0.8-2.3,1.4v1.2c-1,0.4-1.9,1.2-2.4,2.1c-2.4,0.1-2.4,3.2-4.6,3.9h-0.1c0,0.1,0,0.2,0,0.3c-0.4,0-0.8,0.3-0.7,0.8
			l-0.8,0.6c-1.1,0.7-0.9,1.7-1.5,2.7c-1.2,0.8-1.7,2.3-2.7,3.4l0.4,0.8l0.3-0.3C60.4,37,60.9,36.3,61.4,35.8z M129.3,2.4l0.9,0.3
			h0.3c0.7,0.3,1.4,0.4,2.1,0.3c1-0.2,2-0.1,2.9,0.1h1.9c0.7-0.1,1.3,0,1.9,0.4v0.1h-0.7v0.1h1.1c0.7-0.2,1.3-0.2,2,0
			c0.3,0,0.1,0.1,0.3,0.3l0.8,0.3h-0.3c-0.3-0.7-0.8-0.7-1.2-0.7c-2.1-1-4.3-1.4-6.6-1.4h-1.2c-1.8-0.6-3.6-0.8-5.5-0.7h0.3
			L129.3,2.4z M140.6,7.1h0.3H140.6z M152.1,7.9c0.4,0.4,1,0.6,1.5,0.3h0.9c-0.8-0.7-1.8-1-2.8-1.1l-1.1-0.3l0.8,0.4L152.1,7.9z
			 M146.9,5.9c0,0.1,0.1,0.3,0.3,0.4h0.3l0.8-0.4c-0.8-0.4-1.7-0.8-2.7-0.9l1.1,0.7L146.9,5.9z M158.3,10l1.2,0.8
			C159.1,10.4,158.8,10,158.3,10z"/>
		<path id="path7" class="st0" d="M198.6,114.3l0.9-2.4l0.9-2.3c0.3-0.8,0.9-2.8,1.2-4c0.1-0.4,0.2-0.8,0.4-1.1h0.1v-1.7
			c0.8-0.1,0.7-0.9,0.8-1.4l1.2-7.2c0.8-3.1,0.8-6.4,0-9.5c0.1-0.9-0.1-1.8-0.8-2.4v-6.6c-0.4-1.4,0.4-2.9-0.7-4.2l-1.2-4.9
			c0-0.1,0-0.2,0-0.3l-0.3-0.9c-0.1-0.2-0.1-0.4,0-0.7h0.1c0.4,0,0.4-0.8,0.4-1.4c-0.1-0.6-0.3-1.2-0.7-1.7l-0.4-0.7
			c-0.2-0.3-0.3-0.7-0.3-1.1c0-1,0-2.1-0.3-3.1v-0.9c-0.3-1.1-0.7-2.3-0.9-3.4l-0.3-0.8c-0.3-0.6-0.6-1.1-0.7-1.7
			c-0.1-0.4-0.2-0.9-0.4-1.2l-0.9-1.5c-0.2-0.2-0.6-0.3-0.9-0.3h-0.1v-0.4h-0.3v-1.2h-0.1v-0.3v-0.1v-0.2c0.1-0.3,0.1-0.4-0.1-0.8
			c-0.2-0.2-0.4-0.6-0.7-0.9l-0.3-0.9c-0.2-0.7-0.6-1.3-1.1-1.9c-0.3-0.3-0.6-0.7-0.8-1.1l-1.1-2.4c-0.2-0.6-0.6-1.1-0.9-1.5
			l-0.9-1.2c-0.3-0.3-0.4-0.8-0.7-1.2l-0.3-0.4c-0.1-0.2-0.2-0.6-0.1-0.8c0-0.2-0.1-0.4-0.3-0.7l-0.7-0.4v0.3c0.1,0.3,0,0.4-0.1,0.4
			h-0.3l0.4,1.5l0.4,0.8l1.1,1.4h-0.1l-0.3-0.3l-0.3-0.3c-0.1-0.9-0.9-1.7-1.9-1.7v-1.1c-0.4-1.9-2.4-2-3.4-3.2
			c-0.3-0.7-0.9-1.2-1.7-1.4l-1.2-1.4c-1.3-1.9-2.9-3.4-4.8-4.6l-1.2-0.9l-0.7-0.4c-1.1-1.1-1.5-2.8-3.4-2.8l-1.2-0.8l-1.4-1.1
			c-0.4-1.1-1.5-1.9-2.8-2c-1-0.9-2.2-1.5-3.5-1.9l0.3,0.3l0.8,0.7l2,1.1c1.2,0.7,2.3,1.4,3.2,2.4c0.7,0.7,1.4,1.2,2.3,1.7l0.9,0.8
			c0.1,0.1,0.3,0.3,0.1,0.4h0.4l-1.4-0.4c-1.1-0.2-2.1-0.7-3.1-1.2l-1.9-0.9l-2-1.1h-0.3c-0.4-0.1-0.7-0.7-1.2-0.8l-1.2-0.3
			l-3.9-0.8c-0.6-0.2-1-0.7-1.4-1.1c-0.4,0-1-0.2-1.4-0.4l-1.5-0.7c-1.4-0.3-2.9-0.7-4.3-1.2l-0.9-0.3l-1.5-0.4H144L143.7,8V7.9
			h-2.4l-0.9-0.8l-0.7,0.3L139,7.8h-0.3L137.3,7c-0.9,0.9-1.7-0.3-2.4-0.1l-1.5-0.4c-0.6,0.3-1.3,0.3-1.9,0h-1.9
			c-0.4-0.1-0.8-0.4-0.8-0.9l0.4-0.3h0.9c0.1,0.1,0.1,0.3,0.1,0.4c0,0.3,0.3,0.3,0.8,0.3h0.3l-0.7-0.9c-0.4-0.3-1-0.4-1.5-0.3
			l-1.5,0.4h-0.1c0.4,0.3,0.3,0.4,0.3,0.8h-2.4l-0.7-0.3L123.4,5h-0.1l-1.1-0.3h-3.5l0.7-0.3l1.2-0.3h0.4l2.7-0.4l1.7-0.3l0.9-0.3
			h-1.7c-1.8-0.3-3.5-0.3-5.2,0h-2l-5.2-0.1c-2.1,0.1-4.3,0-6,1.9C102.3,4,99,5.8,95.6,7.5l-3.4,1.4c-2.1,0.3-4.1,1.2-5.6,2.8h0.4
			l0.8-0.4l1.2-0.8l2-0.9l1.5-0.3c0.9-0.7,2-1.1,3.1-1.4L97,7.4h0.3c0.1,0.3,0.8,0,1.1,0h0.3c0.1,0,0.1,0.1,0,0.1L98.1,8l1.5-0.4
			l1.2-0.3l-2,1.1l-2,0.7c-0.4,0.1-0.8,0.4-0.9,0.8l-0.4,0.8H96l0.7-0.3c0.3-0.4,0.8-0.8,1.4-0.9l2.3-0.8h0.8c0.1,0,0.2,0,0.2,0.1
			c0,0.1,0,0.2-0.1,0.2l0,0c-0.3,0.3-0.9,0.4-1.2,0.8h0.1l-4.9,1.4l-5.9,2.4c-1,0.9-2.2,1.5-3.5,1.9c-0.8,0.7-1.7,1.2-2.7,1.7
			l-1.2,0.3c-0.3,0.8-1.1,1.3-2,1.4l-0.4,0.8c-0.4,0.7-1.1,1.2-1.9,1.7h-0.1v-0.1l-0.3,0.1L77,21.6L75.5,22h-0.7l-0.7,0.8
			c-0.1,0.1-0.1,0.3,0,0.3h0.1c-0.9,0.9-1.5,2.1-2.8,2.7l-2,2.2c-0.9,1.9-2.8,2.4-4,4c-1.2,1.5-2.1,6-6,6.6l-0.3-0.4l-0.3,0.8
			c-0.1,0.4-0.3,0.9-0.7,1.2c-0.7,1-1.3,2.1-1.9,3.2c-0.1,0.2-0.2,0.6-0.1,0.8c0,0.4-0.1,0.9-0.3,1.2l-0.8,1.7h0.3
			c0.4,0,0.4,0.4,0.7,0.9l1.2-1.7c0.2-0.4,0.6-0.8,0.9-1.1c0.6-0.3,1.1-0.8,1.4-1.4l0.4-0.4l0.7-0.7l0.9-1.7H62
			c0.1,0.1,0.1,0.1,0.3,0l0.3-0.7h0.8v1.2l0.8-0.8c0.1-0.2,0.1-0.6,0-0.8c0-0.2,0-0.3,0.1-0.4c0.2-0.2,0.3-0.4,0.4-0.8
			c0.1-0.7,0.7-1.1,1.2-1.4l0.4-0.3l0.4-0.4c0.6-0.4,1-0.9,1.2-1.5l-0.3-0.4c0-0.1,0.1-0.4,0.3-0.7h0.8l0.9-1.2l0.9-0.4h0.3
			c-3.2,3.4-6,7.1-8.4,11.1h-0.1h0.2c-3.4,5.4-6.2,11.2-8.2,17.2h-0.8L52.9,60c-0.3-0.3-0.1-1.1-0.7-1.4h0.1
			c0.4-0.8-0.1-1.9,0.4-2.7c0.7-0.8,0.1-2.1-1.4-1.9c-1.5,0.2-2.3,0.8-2,2.3s-1.5,2.8-1.7,4.4c-0.1,1.7-0.8,0.8-0.4,1.4v6
			c0.1,1.2-0.8,2.8,1.2,3.2l2,1.4c0.1,0.8-0.8,2.4,1.4,2c-0.3,2.5-0.4,5.1-0.4,7.6c0,1.7,0.1,3.4,0.1,5.1v-0.7
			c-0.1-0.7-0.1-1.2-0.3-2l-0.4,0.4V85H50c0,0.8-0.1,1.2-0.7,1.4c-0.1,0.2-0.2,0.6-0.1,0.8c0,0.1,0.1,0.4,0.3,0.3
			c0.1-0.1,0.7,0.3,1.1,0.7c0.4,0.3-0.3,0.4-0.7,0.3s-0.3,0.1-0.3,0.4v0.4l0.8,2.3c0,0.4-0.1,0.9-0.1,1.4c0,0.4,0.1,0.9,0.3,1.2
			h-0.4v-0.4l-1.1-0.3v-0.9c0-0.2,0-0.6,0-0.8c-0.2-0.9-0.3-1.9-0.4-2.8c-0.3-1.8-0.4-3.5-0.3-5.4c0-0.2,0-0.6,0.1-0.8v0.3
			c0.1,0.2,0.1,0.6,0.1,0.8s0,0.4,0.1,0.7c0.1,0.3,0.3,0.7,0.7,0.7s0.1-0.1,0.1-0.3s-0.1-0.6-0.1-0.8c-0.2-0.7-0.4-1.3-0.4-2
			c-0.1-0.4-0.2-0.8-0.4-1.1c-0.2-0.4-0.3-0.9-0.3-1.4v-1.2c0-0.4,0.1-0.9,0.1-1.4c0-0.2,0-0.4-0.1-0.7H48c-1.2,0.7-1.1,0.3-1.5,2.4
			v2.8c0,1.1-0.1,2.1,0,3.2c0,1.2,0.1,2.3,0.3,3.5c0,0.2,0,0.6,0,0.8c0,0.4,0,0.9,0.1,1.4c0.1,0.7,0.2,1.3,0.1,2
			c-0.1,0.9,0,1.8,0.3,2.7c0,0.2,0,0.4,0,0.7c0,0.4,0,0.9,0.1,1.2c0.1,0.4,0.2,0.9,0.3,1.4c0.1,1.1,0.4,2.3,0.8,3.4
			c0.1,0.6,0.2,1,0.3,1.5c0.1,0.4,0.2,0.8,0.4,1.1c0.4,0.6,0.7,1.2,0.8,1.9c0.1,0.6,0.2,1,0.4,1.5l0.7,2.1c0.2,0.8,0.6,1.5,0.9,2.3
			c0.6,1,1,2.1,1.2,3.2l0.3,0.8c0.4,0.4,0.7,1,0.8,1.5c0.1,0.4,0.3,0.9,0.7,1.2c0.2,0.2,0.3,0.4,0.3,0.8c0.1,0.4,0.3,0.7,0.7,0.4
			h0.1v1.4l0.8,1.5l0.8,1.5l1.7,1.9l0.7,0.7c0.4,0.4,1.1,0.8,1.4,1.5l0.7,0.4c0.2,0.2,0.4,0.4,0.4,0.8l0.3,1.1
			c0.2,0.6,0.6,1,0.9,1.4l0.7,0.3h0.4c0.1,0.1,0.2,0.2,0.2,0.4c0,0,0,0,0,0.1c0,0.2,0,0.6,0,0.8c0.1,0.3,0.3,0.6,0.7,0.8h0.3
			c0.7-0.1,1.2,0.3,1.9,1.1h0.1c0-0.1,0.1-0.1,0-0.3v-0.3c0-0.1,0.1-0.3,0.3-0.1c0.3,0.2,0.4,0.6,0.4,0.9v0.3
			c0.1,0.7,0.3,1.2,0.7,1.9c0.8,0.4,0.8,0.4,0.8,0.1c0-0.3,0-0.3,0.3-0.3h0.7l0.3,0.4l1.2,0.8c1.1,1.2,2.8,1.1,4,1.9l2.7,2.7h0.3
			c0.4,1.1,1.3,2,2.4,2.4c0.3,0.6,0.9,0.9,1.5,0.9c0,0.8,0.9,0.9,1.7,1.1c0.3,0.3,0.8,0.6,1.2,0.7h0.3c0.6,0.7,1.4,0.9,2.3,0.8
			l1.4,1.2l3.6,1.4v0.3c0.8,1.7,2.7,1.1,3.9,1.5l1.7,0.7h0.2c1.9,0.4,3.6,1.4,5.6,0.8c-0.1,0.2-0.1,0.4,0,0.7c1.7,1.1,3.6,0,5.5,0.7
			c0.9,0.3,1.8,0.3,2.7,0.1h0.1l1.2,0.3h0.4l1.4,0.3h0.4c0.2-0.1,0.6-0.1,0.8,0c0.8,0.3,1.5,0.4,2.3,0.7h0.9c0.3-0.2,0.8-0.2,1.1,0
			h6c0.8,0.1,1.7,0,2.4-0.1h1.5l0.8-0.3h5.1l0.9-0.3l0.8-0.4h3.4v0.9h-2l-1.9,0.3c-0.7,0.1-1.1,0-1.5,0.1c-0.4,0.2-1,0.3-1.5,0.3
			l-2,0.4H134c-0.8-0.1-1.5-0.1-2.3,0.1H129c-0.4,0.2-1,0.2-1.4,0h-7c-0.6-0.1-1.2,0-1.7,0.4h-0.4l-0.4-0.3v-0.4h-1.9
			c-0.7-0.2-1.3-0.4-2-0.4h-3.9l-1.1-0.3l-0.8-0.3l-3.2-0.7h-0.8l-0.8-0.3l-3.2-1.1l-2.1-0.7h-3.4c-0.1,0-0.1,0.1-0.1,0.3h0.3
			c2,0.8,4,1.4,6,2.3h0.4l1.4,0.3l2.1,0.7h2l0.9,0.3l1.1,0.4l2.7,0.4l1.7,0.3l1.7,0.3h1.2l1.2,0.3h4.8l1.5,0.3h3.5l1.5-0.3h3.4
			c0.7,0,0.9-0.1,1.1-0.4h1.5c0.4,0,0.9-0.1,1.2-0.4c-0.1,0.1,0,0.1,0.1,0.3h0.7v-0.3c0-0.1,0-0.1,0.3-0.3c0.3-0.2,0.9-0.1,1.1,0.1
			h0.7l0.4-0.3c0.3,0,0.3,0,0.3,0.1h1.1l0.8-0.3l1.2-0.7c0.1,0.4,0.7,0.7,2,0.3l2-0.7h1.9c1.4-0.1,3.1,0,4.2-1.1h0.3l0.7-0.4
			l1.7-0.4c1.1-0.2,2.1-0.7,3.1-1.2l0.7-0.3h0.1l1.4-0.9l0.7-0.3l0.8-0.3h0.7c0.7-0.1,0.7-0.1,0.8-0.7c0.1-0.4,0-0.1-0.3-0.1h-0.1
			l0.7-0.8h0.3c0.4-0.1,0.8-0.3,1.1-0.1h0.3c0.7-0.2,1.2-0.7,1.4-1.4c0.4-0.7,1.7-0.3,2-1.2l6.6-4.8c1.7-0.1,2.1-1.7,3.4-2.7
			c1.2-0.9,3.5-1.7,4.6-3.4l1.4-0.7h0.1c0.8,0.2,1.7-0.3,1.9-1.1v0.7c1.2-0.7,2.8,0.4,4-0.8c1.2-1.2,0-4.2,1.5-5.9l1.1-0.8
			c1.2-2,2-4.2,2.3-6.4l0.3-0.3c0-0.4,0-1.1,0.7-1.4c0.6-0.4,0.7-1.2,0.3-1.9h-0.3c0.1-0.1,0.1-0.3,0-0.4c1.1,0,1.2-1.1,1.9-1.5
			v-2.1c0-0.1,0-0.2,0-0.3C198.5,114.9,198.6,114.6,198.6,114.3L198.6,114.3z"/>
		<path id="path9" class="st0" d="M87.1,11.6l-0.4,0.3L86,12.3l0.8-0.3L87.1,11.6z M96.5,8.6L96.5,8.6L97,8.2h-0.7L96.5,8.6z
			 M92.5,10l-0.2,0.2h0.2V10z M60.6,37.5L60,38.2h0.3C60.5,38.1,60.6,37.9,60.6,37.5z M65.3,32.2c0.2-0.3,0.3-0.6,0.4-0.9
			c-0.3,0.2-0.6,0.4-0.8,0.8c-0.1,0.1-0.1,0.3,0,0.3L65.3,32.2z M63.4,34.5v-0.3c-0.3,0-0.8,0.4-1.2,0.4v0.3
			C62.6,35.4,62.7,35.2,63.4,34.5z M160,11.5h0.1l-0.8-0.4L160,11.5z M156.2,9.4c0.8-0.1,1.2,0.7,1.9,0.8h0.1l-0.4-0.3L156.2,9
			l-1.7-0.8l0.4,0.3L156.2,9.4z M145.7,5.2h-0.1l-1.9-0.3h0.8L145.7,5.2z M148.6,6.3l2,0.7C150.1,6.5,149.4,6.3,148.6,6.3z
			 M134.8,6.3c0.2-0.2,0.3-0.4,0.3-0.8h-0.8l-0.4,0.4l0.7,0.4L134.8,6.3z M142.2,6.7v0.1V6.7z M211.1,87.1h-0.4v-0.7h0.4
			c0.1,0,0.3-0.4,0.1-0.7c-0.1-0.1-0.1-1.1-0.4-1.2c-0.2-0.1-0.3-0.2-0.3-0.4l0.3-0.7c0-0.1,0-0.2,0-0.3h-0.3l-0.3-0.4
			c-0.1,0.4-0.3,0.9-0.7,1.1c0,0.1,0,0.2,0,0.3c0,0.1,0,0.3-0.1,0.3h-0.1c0,0.1-0.1,0.3-0.1,0.4c-0.3,0.4-0.6,0.9-0.7,1.4
			c-0.1,0.2,0,0.4,0.1,0.7h0.1c-0.1,0.4-0.2,0.8-0.1,1.2v0.6c0,0.2-0.1,0.6-0.1,0.8h-0.1l-0.7,1.1v0.9c0.1,0.6-0.1,1.2-0.4,1.7h-0.3
			l-0.3-0.3c-0.2-0.3-0.3-0.8-0.1-1.2c0.1-0.9,0.2-1.8,0.1-2.7c0-0.1-0.1-0.3-0.1-0.3c-0.1,0.1-0.1,0.3-0.1,0.4v0.9
			c0,0.3-0.1,0.9-0.4,1.1c-0.3,0.1-0.1,0.3-0.1,0.4l-0.3,0.9l0.4,0.8c-0.3,0.3-0.7,0.1-0.8-0.1v1.5h0.4v0.8
			c-0.2,0.7-0.4,1.4-0.4,2.1c0,0.2,0,0.4,0,0.7c0,0.7-0.1,1.3-0.3,2c0,0.3,0,0.7,0,0.9l-0.4,1.1c-0.1,0.3-0.2,0.8-0.4,1.1l-0.4,0.9
			l-1.4,4.2c0.4,1.4-0.7,2.3-1.2,3.2c0.2,1.3-0.3,2.7-1.2,3.5v0.7c0,0.1,0.1,0.3,0.4,0.1l0.7-0.4l0.3-0.7h0.3
			c0.1,0.1,0.3,0.1,0.7-0.1h0.3c0.2,0.2,0.3,0.7,0.1,0.9c-0.1,0.4-0.1,0.8-0.1,1.2c0,0.1,0,0.3,0.1,0.3h0.3c0.1,0.1,0.3,0,0.4-0.4
			l0.3-0.8h0.4c0.7-0.1,0.7-0.1,0.9-0.9l0.8-1.4l0.4-0.9l0.7-1.5c0-0.6,0.1-1.1,0.4-1.5c0.2-0.2,0.2-0.7,0.1-0.9
			c0-0.3,0-0.4,0.3-0.9l0.4-0.7l0.8-1.5c0.1-0.4,0.1-0.9,0.3-1.4c0.3-0.7,0.4-1.3,0.4-2c0.1-0.4,0.2-1,0.4-1.4v-0.8
			c-0.1-0.3-0.1-0.3,0-0.9s0.1-0.3,0.3-0.3c0.1,0.1,0.2,0.3,0.1,0.4l0.3-0.8c0.2-0.4,0.3-0.9,0.3-1.4v-0.4c0-0.1,0-0.4-0.1-0.4v0.7
			c-0.3,0-0.4,0.3-0.8,0.4c0.1-0.4,0.1-0.8,0.1-1.2l0.7-0.3c0.2-0.2,0.3-0.6,0.3-0.9c0-0.1,0-0.3,0-0.4c0.2-0.7,0.3-1.4,0.3-2.1
			v-0.3l0.4-1.5h0.1c0.1-0.1,0.2-0.3,0.1-0.4h-0.1c-0.1-0.4,0-0.9,0.3-1.2C212.2,87.8,211.8,87.3,211.1,87.1L211.1,87.1z M60.4,44.6
			c0-0.1,0-0.2,0-0.3L60.1,44l-0.3,0.3l-0.4,0.9c0,0.4-0.4,0.9-0.4,1.4v0.3H59L60.4,44.6z M208.4,82.8h0.1c0.3-0.6,0.4-1.2,0.3-1.9
			c-0.1-0.3,0.1-0.6,0.3-0.8h0.1v-0.2l-0.3-0.3h-0.1c-0.1,0.1-0.3,0.4-0.4,0.4c-0.1,0-0.1,0.1-0.1,0.4v0.4
			C208.2,81.5,208.2,82.2,208.4,82.8L208.4,82.8z M66.7,135.7c-0.1,0,0,0.3,0,0.4l1.2,1.2h0.2c-0.3-0.4-0.4-0.9-0.3-1.1
			c-0.3,0-0.6-0.1-0.8-0.3L66.7,135.7z M209.9,81.3h0.1c0-0.3,0-0.7,0-0.9c-0.4,0.1-0.4,0.1-0.4,0.9
			C209.6,82.1,209.7,81.5,209.9,81.3L209.9,81.3z"/>
		<path id="path11" class="st0" d="M210.4,92.6c0.1-0.2,0.2-0.6,0.1-0.8c0-0.1-0.1-0.3-0.1-0.1h-0.3V92
			C210.1,92.6,210.3,92.7,210.4,92.6L210.4,92.6z M210.5,80h-0.1v0.9C210.5,80.7,210.7,80.3,210.5,80z M72.8,139.6h-0.3v0.3l0.3,0.3
			h0.3v-0.3L72.8,139.6z M205.8,88.4c0-0.1,0-0.1-0.1-0.1L205.8,88.4z M61.7,130.2l0.8,0.8l-0.7-0.9L61.7,130.2z"/>
		<path id="circle13" class="st0" d="M62.5,131.1L62.5,131.1L62.5,131.1z"/>
		<path id="path15" class="st0" d="M61.4,43.5L61.4,43.5l-0.1,0.3L61.4,43.5L61.4,43.5z M189.2,33.5l-0.3-0.4h-0.1L189.2,33.5z
			 M55.4,47.1c0.1-0.1,0.1-0.2,0.1-0.3L55.4,47.1L55.4,47.1z M206.8,90.4L206.8,90.4L206.8,90.4z M71.7,139.5L71.7,139.5
			c0,0.1,0.2,0,0-0.1V139.5z M72,140.6L72,140.6v-0.1V140.6z"/>
	</g>
</g>
<g id="SvgjsG2686" transform="matrix(2.284354285447385,0,0,2.284354285447385,27.980055421585643,-5.609520280720151)" class="st1">
	<path id="path20" class="st2" d="M39.8,24.2l-0.4,5.9c-0.1,2.5,3.6,2.7,3.8,0.3l0.3-5.9C43.6,22,39.9,21.7,39.8,24.2z M27.1,16.6
		L27.1,16.6c0.1,0,28.5-0.4,28.6-0.3C57.5,17.9,57,55,55.9,56c-0.6,0.4-6.4,0.8-12.8,0.8c-1.2-5.3-0.3-11.6-0.3-11.6
		c0.3-2.5-3.4-2.9-3.7-0.6c0,0.1-0.9,6.3,0.2,12.2C33,56.9,27.3,56.6,27,56C25.8,54,27,16.7,27.1,16.6z"/>
</g>
<path class="st3" d="M149.2,31.8l-59,0.6c0,0-4.5,93.6,0,90.5c0,0,23.9,5.1,60.2,0.8c0,0,5.6-5.4,6.1-12c1.1-17.6,2.9-52.3,0.8-70.1
	C156.7,36.9,150.4,33.5,149.2,31.8z M138.6,95.2c-1.9,5.2-12.8,8.3-20,12.3c-1.6,0.9-3.6-0.1-3.9-2L109.3,68l1.7-2.6l-4-20.5
	c0,0,4.5-8,10.5-1l2.1,21.4l7.4,1.1C128.1,66.5,141.3,87.8,138.6,95.2z"/>
<path class="st4" d="M164.7,37.6c-0.7-5.1-7.6-8.8-8.8-10.7l-65.2,0.7c0,0-5,103.5,0,100.1c0,0,26.4,5.6,66.6,0.9
	c0,0,6.2-6,6.7-13.3C165.2,95.6,167.2,57.3,164.7,37.6z M119.3,112.1c-0.3,0.3-0.9,0.1-1-0.3l-6.4-44.7c0-0.1,0-0.3,0.1-0.4l1.7-2.5
	c0.1-0.1,0.1-0.3,0.1-0.4l-4.3-22.2c0-0.1,0-0.3,0.1-0.4c0.8-1.2,5.4-7.8,11.4-1.1c0.1,0.1,0.1,0.2,0.1,0.3l2.2,23
	c0,0.3,0.2,0.6,0.6,0.6l7.3,1.1c0.2,0,0.4,0.2,0.6,0.6C132,69.2,135.1,97.5,119.3,112.1z"/>
<path class="st0" d="M129,112.2l23.5-3.9l1.7-48.9l-3.3-19.1l-24.1-0.6l2.2,23.3l7,1.5c0,0,2,28.4-4.9,39.2c0,0-3.3,6.1-5.6,8.1
	L129,112.2z"/>
</svg>
